<svg height="512pt" viewBox="-10 0 511 512" width="512pt" xmlns="http://www.w3.org/2000/svg"><path d="m77.445312 445.261719c17.386719 3.714843 196.898438 40.289062 338.832032-2.617188 45.777344-44.511719 74.222656-106.75 74.222656-175.644531 0-135.308594-109.6875-245-245-245s-245 109.691406-245 245c0 70.25 29.574219 133.585938 76.945312 178.261719zm0 0" fill="#fbc840"/><path d="m157.089844 68.832031c-3.800782 0-6.882813-3.082031-6.882813-6.886719v-21.871093c0-3.804688 3.082031-6.886719 6.882813-6.886719 3.804687 0 6.886718 3.085938 6.886718 6.886719v21.871093c0 3.804688-3.082031 6.886719-6.886718 6.886719zm0 0" fill="#f79d0d"/><path d="m301.503906 68.832031c-3.804687 0-6.886718-3.082031-6.886718-6.886719v-21.871093c0-3.804688 3.082031-6.886719 6.886718-6.886719 3.800782 0 6.882813 3.085938 6.882813 6.886719v21.871093c0 3.804688-3.082031 6.886719-6.882813 6.886719zm0 0" fill="#f79d0d"/><path d="m342.03125 61.945312h-225.484375c-4.835937 0-8.753906 3.921876-8.753906 8.753907v187.597656c1.378906.699219 2.703125 1.53125 3.9375 2.53125.828125.667969 1.980469.667969 2.808593 0 3.945313-3.191406 8.714844-4.878906 13.789063-4.878906 9.246094 0 17.558594 5.847656 20.675781 14.554687.324219.90625 1.210938 1.507813 2.132813 1.480469.175781-.003906.351562-.007813.527343-.007813 12.109376 0 21.957032 9.851563 21.957032 21.960938 0 2.015625-.273438 4.015625-.8125 5.945312-.285156 1.011719.160156 2.066407 1.082031 2.566407 9.875 5.355469 16.015625 15.652343 16.015625 26.871093 0 10.820313-5.816406 20.933594-15.179688 26.398438-.679687.398438-1.105468 1.136719-1.105468 1.9375 0 7.375-3.496094 13.988281-9.597656 18.136719-6.027344 4.101562-13.660157 4.960937-20.410157 2.296875-1.078125-.425782-2.3125.070312-2.8125 1.132812-3.320312 7.066406-9.144531 12.546875-16.40625 15.429688l-.871093.34375v69.496094h175.398437v-361.75c0-4.835938 3.917969-8.753907 8.75-8.753907h43.113281v-23.289062c0-4.832031-3.917968-8.753907-8.753906-8.753907zm0 0" fill="#d9f5ff"/><path d="m158.199219 378.609375c-4.726563 1.480469-9.871094 1.339844-14.585938-.519531-1.078125-.425782-2.3125.074218-2.8125 1.136718-3.316406 7.0625-9.144531 12.542969-16.40625 15.425782l-.867187.34375v69.496094h34.667968v-85.882813zm0 0" fill="#abe4fe"/><path d="m149.003906 270.503906c.324219.910156 1.210938 1.511719 2.132813 1.480469.175781-.003906.351562-.007813.527343-.007813 2.273438 0 4.46875.347657 6.535157.992188v-202.269531c0-4.832031 3.917969-8.753907 8.75-8.753907h-50.402344c-4.835937 0-8.753906 3.921876-8.753906 8.753907v187.597656c1.378906.699219 2.703125 1.53125 3.9375 2.53125.828125.667969 1.980469.667969 2.808593 0 3.945313-3.191406 8.714844-4.878906 13.789063-4.878906 9.246094 0 17.558594 5.851562 20.675781 14.554687zm0 0" fill="#abe4fe"/><path d="m262.546875 410.066406h-39.292969c-2.339844 0-4.234375-1.894531-4.234375-4.234375v-44.128906c0-2.339844 1.894531-4.234375 4.234375-4.234375h39.292969c2.335937 0 4.234375 1.894531 4.234375 4.234375v44.128906c0 2.339844-1.898438 4.234375-4.234375 4.234375zm0 0" fill="#82c6f9"/><path d="m242.898438 405.832031v-44.128906c0-2.339844 1.898437-4.234375 4.238281-4.234375h-23.882813c-2.339844 0-4.234375 1.894531-4.234375 4.234375v44.128906c0 2.339844 1.894531 4.234375 4.234375 4.234375h23.882813c-2.339844 0-4.238281-1.894531-4.238281-4.234375zm0 0" fill="#52b0f5"/><path d="m266.78125 376.128906h-47.761719v-14.425781c0-2.339844 1.898438-4.234375 4.238281-4.234375h39.289063c2.339844 0 4.234375 1.894531 4.234375 4.234375zm0 0" fill="#52b0f5"/><path d="m242.898438 361.703125c0-2.339844 1.898437-4.234375 4.238281-4.234375h-23.882813c-2.328125 0-4.234375 1.886719-4.234375 4.234375v14.425781h23.878907zm0 0" fill="#2299f2"/><path d="m316.621094 0h-174.664063c-6.441406 0-11.660156 5.222656-11.660156 11.660156v20.929688c0 6.4375 5.21875 11.660156 11.660156 11.660156h174.664063c6.4375 0 11.660156-5.222656 11.660156-11.660156v-20.929688c0-6.4375-5.21875-11.660156-11.660156-11.660156zm0 0" fill="#554cbf"/><path d="m198.09375 32.589844v-20.929688c0-6.4375 5.21875-11.660156 11.660156-11.660156h-67.796875c-6.441406 0-11.660156 5.222656-11.660156 11.660156v20.929688c0 6.4375 5.21875 11.660156 11.660156 11.660156h67.796875c-6.441406 0-11.660156-5.222656-11.660156-11.660156zm0 0" fill="#483ba8"/><path d="m113.132812 396.351562c-4.15625 0-8.125-.804687-11.769531-2.253906v70.394532h23.539063v-70.394532c-3.640625 1.445313-7.609375 2.253906-11.769532 2.253906zm0 0" fill="#aa3d27"/><path d="m113.503906 423.992188h-.738281c-6.296875 0-11.402344-5.101563-11.402344-11.398438v51.898438h23.539063v-51.898438c0 6.296875-5.101563 11.398438-11.398438 11.398438zm0 0" fill="#98341a"/><path d="m101.355469 452.785156c-3.222657 0-6.101563-2.273437-6.746094-5.554687-3.925781-19.929688-24.074219-33.726563-24.277344-33.867188-3.148437-2.121093-3.988281-6.398437-1.867187-9.550781 2.117187-3.152344 6.382812-3.996094 9.535156-1.886719 1.023438.683594 25.078125 17.03125 30.121094 42.644531.839844 4.261719-2.429688 8.214844-6.765625 8.214844zm0 0" fill="#aa3d27"/><path d="m395.734375 92.152344h-89.894531c-4.835938 0-8.753906 3.917968-8.753906 8.753906v363.585938h93.402343c4.800781-3.53125 9.472657-7.230469 13.996094-11.09375v-352.492188c0-4.835938-3.917969-8.753906-8.75-8.753906zm0 0" fill="#d93a59"/><path d="m395.734375 376.160156h-89.894531c-4.835938 0-8.753906 3.917969-8.753906 8.753906v79.578126h93.402343c4.800781-3.53125 9.472657-7.230469 13.996094-11.09375v-68.484376c0-4.835937-3.917969-8.753906-8.75-8.753906zm0 0" fill="#ba1c37"/><path d="m297.546875 471.378906c-3.804687 0-6.886719-3.082031-6.886719-6.886718v-372.339844c0-3.800782 3.082032-6.882813 6.886719-6.882813 3.800781 0 6.882813 3.082031 6.882813 6.882813v372.339844c0 3.804687-3.082032 6.886718-6.882813 6.886718zm0 0" fill="#f7577a"/><path d="m333.039062 471.378906c-3.804687 0-6.886718-3.082031-6.886718-6.886718v-372.339844c0-3.800782 3.082031-6.882813 6.886718-6.882813 3.804688 0 6.886719 3.082031 6.886719 6.882813v372.339844c0 3.804687-3.082031 6.886718-6.886719 6.886718zm0 0" fill="#f7577a"/><path d="m368.53125 471.378906c-3.800781 0-6.882812-3.082031-6.882812-6.886718v-372.339844c0-3.800782 3.082031-6.882813 6.882812-6.882813 3.804688 0 6.886719 3.082031 6.886719 6.882813v372.339844c0 3.804687-3.082031 6.886718-6.886719 6.886718zm0 0" fill="#f7577a"/><path d="m404.027344 85.269531c-3.804688 0-6.886719 3.082031-6.886719 6.882813v367.285156c4.738281-3.738281 9.328125-7.648438 13.769531-11.714844v-355.570312c0-3.800782-3.082031-6.882813-6.882812-6.882813zm0 0" fill="#f7577a"/><g fill="#d93a59"><path d="m297.546875 386.160156c-3.804687 0-6.886719-3.082031-6.886719-6.882812v85.214844c0 3.804687 3.082032 6.886718 6.886719 6.886718 3.800781 0 6.882813-3.082031 6.882813-6.886718v-85.214844c0 3.800781-3.082032 6.882812-6.882813 6.882812zm0 0"/><path d="m333.039062 386.160156c-3.804687 0-6.886718-3.082031-6.886718-6.882812v85.214844c0 3.804687 3.082031 6.886718 6.886718 6.886718 3.804688 0 6.886719-3.082031 6.886719-6.886718v-85.214844c0 3.800781-3.082031 6.882812-6.886719 6.882812zm0 0"/><path d="m368.53125 386.160156c-3.800781 0-6.882812-3.082031-6.882812-6.882812v85.214844c0 3.804687 3.082031 6.886718 6.882812 6.886718 3.804688 0 6.886719-3.082031 6.886719-6.886718v-85.214844c0 3.800781-3.082031 6.882812-6.886719 6.882812zm0 0"/><path d="m404.027344 386.160156c-3.804688 0-6.886719-3.082031-6.886719-6.882812v80.160156c4.738281-3.738281 9.328125-7.648438 13.769531-11.714844v-68.445312c0 3.800781-3.082031 6.882812-6.882812 6.882812zm0 0"/></g><path d="m403.761719 438.558594c-9.964844 0-19.050781 3.769531-25.910157 9.957031-2.796874 2.523437-6.980468 2.523437-9.777343 0-6.859375-6.1875-15.941407-9.957031-25.910157-9.957031-9.945312 0-19.015624 3.753906-25.871093 9.917968-2.820313 2.539063-7.035157 2.539063-9.859375 0-6.855469-6.164062-15.921875-9.917968-25.867188-9.917968-9.949218 0-19.015625 3.753906-25.871094 9.917968-2.785156 2.503907-7.074218 2.503907-9.859374 0-6.855469-6.164062-15.921876-9.917968-25.867188-9.917968-10.039062 0-19.183594 3.824218-26.0625 10.09375-2.699219 2.457031-6.777344 2.457031-9.476562 0-14.675782-13.375-37.125-13.488282-51.929688-.175782-2.824219 2.539063-7.035156 2.539063-9.859375 0-12.71875-11.4375-31.214844-13.039062-45.574219-4.515624 44.003906 42.144531 103.695313 68.039062 169.433594 68.039062 67.160156 0 128.003906-27.03125 172.261719-70.800781-4.34375-1.691407-9.058594-2.640625-14-2.640625zm0 0" fill="#abf222"/><path d="m173.683594 489.9375c7.550781-6.480469 16.875-9.535156 26.09375-9.324219 3.742187.089844 6.996094-2.707031 7.480468-6.417969 1.1875-9.144531 5.621094-17.898437 13.171876-24.375 4.355468-3.742187 9.308593-6.335937 14.488281-7.824218-4.863281-2.203125-10.261719-3.4375-15.949219-3.4375-10.039062 0-19.183594 3.824218-26.0625 10.09375-2.699219 2.460937-6.777344 2.460937-9.476562 0-14.671876-13.375-37.125-13.488282-51.929688-.171875-2.824219 2.539062-7.035156 2.539062-9.859375 0-12.71875-11.441407-31.214844-13.039063-45.574219-4.519531 25.390625 24.316406 56.007813 43.207031 89.992188 54.851562 2.027344-3.246094 4.566406-6.25 7.625-8.875zm0 0" fill="#83d912"/><path d="m191.28125 329.320312c0-12.132812-6.769531-22.679687-16.734375-28.082031-.351563-.191406-.523437-.597656-.414063-.980469.566407-2.011718.867188-4.132812.867188-6.320312 0-12.890625-10.445312-23.335938-23.335938-23.335938-.1875 0-.375 0-.558593.003907-.363281.011719-.683594-.222657-.804688-.566407-3.230469-9.015624-11.84375-15.46875-21.972656-15.46875-5.550781 0-10.648437 1.945313-14.65625 5.1875-.3125.253907-.757813.253907-1.074219 0-4.007812-3.242187-9.101562-5.1875-14.65625-5.1875-10.125 0-18.742187 6.453126-21.96875 15.46875-.125.34375-.445312.578126-.808594.566407-.183593-.003907-.371093-.003907-.558593-.003907-12.886719 0-23.335938 10.445313-23.335938 23.335938 0 2.1875.300781 4.308594.867188 6.320312.105469.382813-.0625.789063-.414063.980469-9.964844 5.402344-16.738281 15.949219-16.738281 28.082031 0 11.773438 6.378906 22.050782 15.863281 27.589844.453125.261719.433594.789063.421875.746094 0 12.890625 10.445313 23.335938 23.335938 23.335938 3.019531 0 5.90625-.574219 8.554687-1.621094.410156-.164063.875.039062 1.0625.441406 5.097656 10.855469 16.125 18.375 28.914063 18.375 12.785156 0 23.8125-7.519531 28.910156-18.375.191406-.402344.652344-.601562 1.0625-.441406 15.207031 6 31.890625-5.1875 31.890625-21.714844v-.003906c0-.304688.15625-.585938.421875-.742188 9.484375-5.535156 15.859375-15.816406 15.859375-27.589844zm0 0" fill="#83d912"/><path d="m139.851562 358.863281c-.1875-.402343-.648437-.605469-1.0625-.441406-2.648437 1.046875-5.53125 1.625-8.554687 1.625-12.886719 0-23.335937-10.449219-23.335937-23.335937.011718.042968.03125-.488282-.417969-.75-9.488281-5.535157-15.863281-15.816407-15.863281-27.589844 0-12.132813 6.769531-22.679688 16.738281-28.082032.351562-.191406.519531-.597656.410156-.980468-.566406-2.011719-.867187-4.128906-.867187-6.320313 0-5.253906 1.738281-10.097656 4.664062-14-3.835938-2.765625-8.53125-4.414062-13.625-4.414062-10.125 0-18.738281 6.449219-21.96875 15.464843-.121094.34375-.441406.578126-.804688.570313-.1875-.003906-.375-.007813-.5625-.007813-12.886718 0-23.335937 10.449219-23.335937 23.335938 0 2.191406.304687 4.308594.867187 6.320312.109376.386719-.058593.789063-.410156.980469-9.96875 5.402344-16.738281 15.949219-16.738281 28.082031 0 11.773438 6.375 22.054688 15.863281 27.589844.449219.265625.429688.792969.417969.75 0 12.886719 10.449219 23.335938 23.335937 23.335938 3.019532 0 5.90625-.578125 8.554688-1.625.414062-.160156.875.039062 1.0625.441406 5.097656 10.855469 16.125 18.375 28.914062 18.375 12.789063 0 23.8125-7.519531 28.914063-18.375.1875-.402344.648437-.601562 1.058594-.441406 7.597656 3 15.566406 1.707031 21.636719-2.398438-11.042969-1.394531-20.335938-8.410156-24.890626-18.109375zm0 0" fill="#5bbf02"/><path d="m113.132812 376.019531c0-7.363281-4.109374-13.761719-10.15625-17.042969-.214843-.117187-.316406-.359374-.25-.59375.34375-1.222656.527344-2.507812.527344-3.835937 0-7.820313-6.339844-14.160156-14.160156-14.160156-.117188 0-.230469 0-.339844.003906-.222656.003906-.417968-.136719-.492187-.34375-1.957031-5.472656-7.1875-9.390625-13.332031-9.390625-3.367188 0-6.460938 1.183594-8.894532 3.148438-.191406.15625-.460937.15625-.652344 0-2.429687-1.964844-5.523437-3.148438-8.894531-3.148438-6.144531 0-11.371093 3.917969-13.332031 9.390625-.074219.207031-.269531.347656-.488281.34375-.113281-.003906-.226563-.003906-.339844-.003906-7.820313 0-14.164063 6.339843-14.164063 14.160156 0 1.328125.183594 2.617187.527344 3.835937.066406.234376-.039062.476563-.25.59375-6.046875 3.28125-10.15625 9.679688-10.15625 17.042969 0 7.144531 3.867188 13.382813 9.625 16.742188.273438.160156.261719.480469.253906.457031 0 7.820312 6.339844 14.160156 14.164063 14.160156 1.832031 0 3.582031-.351562 5.191406-.984375.25-.101562.53125.019531.644531.265625 3.09375 6.589844 9.785157 11.152344 17.546876 11.152344 7.761718 0 14.449218-4.566406 17.546874-11.152344.113282-.242187.390626-.367187.644532-.265625 9.226562 3.640625 19.351562-3.148437 19.351562-13.179687 0-.1875.09375-.359375.253906-.453125 5.757813-3.359375 9.625-9.597657 9.625-16.742188zm0 0" fill="#abf222"/><path d="m75.890625 398.222656c-.113281-.242187-.394531-.367187-.644531-.269531-1.609375.636719-3.359375.988281-5.191406.988281-7.820313 0-14.160157-6.339844-14.160157-14.164062.003907.027344.015625-.292969-.257812-.453125-5.753907-3.359375-9.625-9.597657-9.625-16.742188 0-7.363281 4.109375-13.761719 10.15625-17.042969.214843-.117187.316406-.359374.25-.59375-.34375-1.222656-.523438-2.507812-.523438-3.835937 0-5.828125 3.519531-10.828125 8.550781-13-2.269531-1.546875-5.007812-2.449219-7.957031-2.449219-6.144531 0-11.375 3.914063-13.332031 9.386719-.074219.207031-.269531.347656-.488281.34375-.113281-.003906-.226563-.003906-.339844-.003906-7.820313 0-14.164063 6.339843-14.164063 14.160156 0 1.328125.1875 2.617187.527344 3.835937.066406.234376-.035156.476563-.25.59375-6.046875 3.28125-10.15625 9.679688-10.15625 17.042969 0 7.144531 3.867188 13.382813 9.625 16.742188.273438.160156.261719.480469.253906.457031 0 7.820312 6.339844 14.160156 14.160157 14.160156 1.835937 0 3.585937-.351562 5.195312-.984375.25-.101562.527344.019531.644531.265625 3.09375 6.589844 9.785157 11.152344 17.546876 11.152344 7.757812 0 14.449218-4.566406 17.542968-11.152344.023438-.050781.058594-.089844.09375-.128906-3.226562-1.976562-5.835937-4.859375-7.457031-8.308594zm0 0" fill="#83d912"/><path d="m262.546875 331.730469h-39.292969c-2.339844 0-4.234375-1.894531-4.234375-4.234375v-44.128906c0-2.339844 1.894531-4.234376 4.234375-4.234376h39.292969c2.335937 0 4.234375 1.894532 4.234375 4.234376v44.128906c0 2.339844-1.898438 4.234375-4.234375 4.234375zm0 0" fill="#82c6f9"/><path d="m242.898438 327.496094v-44.128906c0-2.339844 1.898437-4.234376 4.238281-4.234376h-23.882813c-2.339844 0-4.234375 1.894532-4.234375 4.234376v44.128906c0 2.339844 1.894531 4.234375 4.234375 4.234375h23.882813c-2.339844 0-4.238281-1.894531-4.238281-4.234375zm0 0" fill="#52b0f5"/><path d="m266.78125 297.792969h-47.761719v-14.425781c0-2.339844 1.898438-4.234376 4.238281-4.234376h39.289063c2.339844 0 4.234375 1.894532 4.234375 4.234376zm0 0" fill="#52b0f5"/><path d="m242.898438 283.367188c0-2.339844 1.898437-4.234376 4.238281-4.234376h-23.882813c-2.328125 0-4.234375 1.886719-4.234375 4.234376v14.425781h23.878907zm0 0" fill="#2299f2"/><path d="m262.546875 253.394531h-39.292969c-2.339844 0-4.234375-1.894531-4.234375-4.234375v-44.128906c0-2.339844 1.894531-4.234375 4.234375-4.234375h39.292969c2.335937 0 4.234375 1.894531 4.234375 4.234375v44.128906c0 2.339844-1.898438 4.234375-4.234375 4.234375zm0 0" fill="#82c6f9"/><path d="m242.898438 249.160156v-44.128906c0-2.339844 1.898437-4.234375 4.238281-4.234375h-23.882813c-2.339844 0-4.234375 1.894531-4.234375 4.234375v44.128906c0 2.339844 1.894531 4.234375 4.234375 4.234375h23.882813c-2.339844 0-4.238281-1.894531-4.238281-4.234375zm0 0" fill="#52b0f5"/><path d="m266.78125 219.457031h-47.761719v-14.425781c0-2.339844 1.898438-4.234375 4.238281-4.234375h39.289063c2.339844 0 4.234375 1.894531 4.234375 4.234375zm0 0" fill="#52b0f5"/><path d="m242.898438 205.03125c0-2.339844 1.898437-4.234375 4.238281-4.234375h-23.882813c-2.328125 0-4.234375 1.886719-4.234375 4.234375v14.425781h23.878907zm0 0" fill="#2299f2"/><path d="m262.546875 175.058594h-39.292969c-2.339844 0-4.234375-1.894532-4.234375-4.234375v-44.128907c0-2.339843 1.894531-4.234374 4.234375-4.234374h39.292969c2.335937 0 4.234375 1.894531 4.234375 4.234374v44.128907c0 2.339843-1.898438 4.234375-4.234375 4.234375zm0 0" fill="#82c6f9"/><path d="m242.898438 170.824219v-44.128907c0-2.339843 1.898437-4.234374 4.238281-4.234374h-23.882813c-2.339844 0-4.234375 1.894531-4.234375 4.234374v44.128907c0 2.339843 1.894531 4.234375 4.234375 4.234375h23.882813c-2.339844 0-4.238281-1.894532-4.238281-4.234375zm0 0" fill="#52b0f5"/><path d="m266.78125 141.121094h-47.761719v-14.425782c0-2.339843 1.898438-4.234374 4.238281-4.234374h39.289063c2.339844 0 4.234375 1.894531 4.234375 4.234374zm0 0" fill="#52b0f5"/><path d="m242.898438 126.695312c0-2.339843 1.898437-4.234374 4.238281-4.234374h-23.882813c-2.328125 0-4.234375 1.890624-4.234375 4.234374v14.425782h23.878907zm0 0" fill="#2299f2"/></svg>